<?xml version="1.0" encoding="UTF-8"?>
<!DOCTYPE svg PUBLIC "-//W3C//DTD SVG 1.1//EN" "http://www.w3.org/Graphics/SVG/1.1/DTD/svg11.dtd">
<svg xmlns="http://www.w3.org/2000/svg" version="1.1" width="160px" height="160px" style="shape-rendering:geometricPrecision; text-rendering:geometricPrecision; image-rendering:optimizeQuality; fill-rule:evenodd; clip-rule:evenodd" xmlns:xlink="http://www.w3.org/1999/xlink">
<g><path style="opacity:1" fill="#b30d14" d="M 68.5,7.5 C 65.533,6.52337 62.6996,6.19004 60,6.5C 59.3486,8.23501 59.5153,9.90167 60.5,11.5C 57.9351,14.9487 57.9351,18.2821 60.5,21.5C 60.5,22.1667 60.5,22.8333 60.5,23.5C 58.5372,22.0401 56.7038,20.3734 55,18.5C 54.6012,18.7284 54.4346,19.0618 54.5,19.5C 53.8333,19.1667 53.1667,18.8333 52.5,18.5C 50.2756,15.376 47.2756,13.2094 43.5,12C 36.4346,9.62981 29.2679,9.12981 22,10.5C 20.3771,11.921 19.2105,13.5876 18.5,15.5C 17.5112,11.5498 19.1779,8.71646 23.5,7C 31.3953,5.68577 38.7287,7.18577 45.5,11.5C 45.6759,9.32843 45.8425,6.9951 46,4.5C 46.5,2.66667 47.6667,1.5 49.5,1C 57.4642,-1.22376 63.7976,0.942909 68.5,7.5 Z"/></g>
<g><path style="opacity:0.991" fill="#9a131b" d="M 52.5,18.5 C 48.0845,17.0808 43.9179,15.7474 40,14.5C 36.0542,18.4986 34.8876,23.1653 36.5,28.5C 34.2609,25.3511 31.9276,22.1845 29.5,19C 26.2139,17.0082 23.2139,17.1749 20.5,19.5C 19.3263,18.4863 18.6596,17.153 18.5,15.5C 19.2105,13.5876 20.3771,11.921 22,10.5C 29.2679,9.12981 36.4346,9.62981 43.5,12C 47.2756,13.2094 50.2756,15.376 52.5,18.5 Z"/></g>
<g><path style="opacity:1" fill="#a6030e" d="M 101.5,0.5 C 104.694,3.28308 105.36,6.78308 103.5,11C 99.794,13.1882 96.4607,15.8548 93.5,19C 94.1186,21.5441 93.6186,24.0441 92,26.5C 91.6667,26.1667 91.3333,25.8333 91,25.5C 90.5348,26.9308 89.7014,28.0975 88.5,29C 86.5975,29.1992 85.0975,30.0325 84,31.5C 83.6667,30.8333 83.3333,30.1667 83,29.5C 81.3523,30.717 79.519,31.5503 77.5,32C 75.6763,32.66 74.343,33.8267 73.5,35.5C 72.609,36.1098 71.609,36.4431 70.5,36.5C 69.5116,35.205 68.5116,33.8717 67.5,32.5C 69.1436,30.5193 70.8103,28.5193 72.5,26.5C 77.8449,24.3199 82.5115,21.1533 86.5,17C 88.1786,16.6053 89.8453,16.772 91.5,17.5C 92.737,17.4435 93.737,16.9435 94.5,16C 93.1218,14.2866 91.4552,12.9533 89.5,12C 82.4969,11.2555 75.4969,10.9222 68.5,11C 64.9985,13.8232 62.3318,17.3232 60.5,21.5C 57.9351,18.2821 57.9351,14.9487 60.5,11.5C 59.5153,9.90167 59.3486,8.23501 60,6.5C 62.6996,6.19004 65.533,6.52337 68.5,7.5C 70.7375,8.53664 73.0709,8.70331 75.5,8C 83.2231,2.37167 91.8897,-0.12833 101.5,0.5 Z"/></g>
<g><path style="opacity:1" fill="#c1000e" d="M 67.5,32.5 C 64.8154,29.8103 62.4821,26.8103 60.5,23.5C 60.5,22.8333 60.5,22.1667 60.5,21.5C 62.3318,17.3232 64.9985,13.8232 68.5,11C 75.4969,10.9222 82.4969,11.2555 89.5,12C 91.4552,12.9533 93.1218,14.2866 94.5,16C 93.737,16.9435 92.737,17.4435 91.5,17.5C 89.8453,16.772 88.1786,16.6053 86.5,17C 82.5115,21.1533 77.8449,24.3199 72.5,26.5C 70.8103,28.5193 69.1436,30.5193 67.5,32.5 Z"/></g>
<g><path style="opacity:0.867" fill="#f24651" d="M 126.5,17.5 C 125.957,17.44 125.624,17.1067 125.5,16.5C 126.651,14.1909 127.984,12.0242 129.5,10C 129.355,9.22797 129.022,8.5613 128.5,8C 123.669,7.22202 119.003,7.72202 114.5,9.5C 112.774,9.81461 111.107,9.98128 109.5,10C 110.044,9.28281 110.711,8.78281 111.5,8.5C 117.723,6.73143 124.057,6.23143 130.5,7C 132.211,8.13318 132.711,9.63318 132,11.5C 129.96,13.3702 128.127,15.3702 126.5,17.5 Z"/></g>
<g><path style="opacity:1" fill="#bf0210" d="M 101.5,0.5 C 106.41,0.619628 110.077,2.7863 112.5,7C 111.944,7.38258 111.611,7.88258 111.5,8.5C 110.711,8.78281 110.044,9.28281 109.5,10C 111.107,9.98128 112.774,9.81461 114.5,9.5C 112.412,11.0195 110.078,12.0195 107.5,12.5C 100.404,13.3807 98.4037,16.8807 101.5,23C 100.373,24.7533 99.373,26.5866 98.5,28.5C 93.9886,31.495 89.3219,34.3283 84.5,37C 81.805,37.2543 79.305,37.421 77,37.5C 75.8873,36.695 74.7206,36.0283 73.5,35.5C 74.343,33.8267 75.6763,32.66 77.5,32C 79.519,31.5503 81.3523,30.717 83,29.5C 83.3333,30.1667 83.6667,30.8333 84,31.5C 85.0975,30.0325 86.5975,29.1992 88.5,29C 89.7014,28.0975 90.5348,26.9308 91,25.5C 91.3333,25.8333 91.6667,26.1667 92,26.5C 93.6186,24.0441 94.1186,21.5441 93.5,19C 96.4607,15.8548 99.794,13.1882 103.5,11C 105.36,6.78308 104.694,3.28308 101.5,0.5 Z"/></g>
<g><path style="opacity:1" fill="#f50f20" d="M 126.5,17.5 C 131.5,17.4983 136.167,18.4983 140.5,20.5C 138.574,21.4861 136.574,22.4861 134.5,23.5C 134.5,22.1667 134.5,20.8333 134.5,19.5C 125.157,16.5267 120.157,19.8601 119.5,29.5C 121.5,29.5 123.5,29.5 125.5,29.5C 124.205,30.4884 122.872,31.4884 121.5,32.5C 120.791,31.596 119.791,31.2627 118.5,31.5C 118.751,27.6689 117.584,24.3356 115,21.5C 113.028,22.3052 111.528,23.6385 110.5,25.5C 109.914,25.2907 109.414,24.9574 109,24.5C 108.889,20.2464 108.389,16.2464 107.5,12.5C 110.078,12.0195 112.412,11.0195 114.5,9.5C 119.003,7.72202 123.669,7.22202 128.5,8C 129.022,8.5613 129.355,9.22797 129.5,10C 127.984,12.0242 126.651,14.1909 125.5,16.5C 125.624,17.1067 125.957,17.44 126.5,17.5 Z"/></g>
<g><path style="opacity:0.999" fill="#fb0112" d="M 134.5,23.5 C 131.5,25.5 128.5,27.5 125.5,29.5C 123.5,29.5 121.5,29.5 119.5,29.5C 120.157,19.8601 125.157,16.5267 134.5,19.5C 134.5,20.8333 134.5,22.1667 134.5,23.5 Z"/></g>
<g><path style="opacity:1" fill="#a0010c" d="M 54.5,20.5 C 56.0828,22.6626 57.4161,24.9959 58.5,27.5C 60.9491,35.5141 63.6158,43.5141 66.5,51.5C 65.3588,52.339 64.0255,53.0057 62.5,53.5C 57.6753,53.0918 53.0087,52.5918 48.5,52C 48.8333,51.6667 49.1667,51.3333 49.5,51C 46.508,49.8927 45.8413,48.226 47.5,46C 45.4011,44.3184 44.0678,42.6517 43.5,41C 44.4908,36.6736 44.8242,32.1736 44.5,27.5C 44.4974,26.0359 44.8307,24.3692 45.5,22.5C 47.5294,21.3707 47.8627,21.8707 46.5,24C 49.4875,26.8772 49.8208,29.8772 47.5,33C 48.6872,34.0195 49.6872,35.1861 50.5,36.5C 49.9747,37.1924 49.3081,37.6924 48.5,38C 49.8175,41.367 50.8175,44.5336 51.5,47.5C 54.4404,48.3035 57.1071,49.6369 59.5,51.5C 60.7362,50.7542 62.0695,50.4208 63.5,50.5C 63.3766,47.626 62.3766,45.126 60.5,43C 61.3452,41.4419 60.6785,40.4419 58.5,40C 59.1667,39.6667 59.8333,39.3333 60.5,39C 58.5189,35.7098 56.1855,32.7098 53.5,30C 53.9574,29.586 54.2907,29.086 54.5,28.5C 53.5,27.6667 52.5,26.8333 51.5,26C 52.7577,24.2591 53.7577,22.4258 54.5,20.5 Z"/></g>
<g><path style="opacity:1" fill="#8d1d24" d="M 36.5,28.5 C 37.0508,31.8067 37.3841,35.1401 37.5,38.5C 37.1667,38.5 36.8333,38.5 36.5,38.5C 36.6495,37.448 36.4828,36.448 36,35.5C 31.6342,30.7993 26.9675,26.466 22,22.5C 21.4867,21.4734 20.9867,20.4734 20.5,19.5C 23.2139,17.1749 26.2139,17.0082 29.5,19C 31.9276,22.1845 34.2609,25.3511 36.5,28.5 Z"/></g>
<g><path style="opacity:1" fill="#9c020d" d="M 52.5,18.5 C 53.1667,18.8333 53.8333,19.1667 54.5,19.5C 54.5,19.8333 54.5,20.1667 54.5,20.5C 53.7577,22.4258 52.7577,24.2591 51.5,26C 52.5,26.8333 53.5,27.6667 54.5,28.5C 54.2907,29.086 53.9574,29.586 53.5,30C 56.1855,32.7098 58.5189,35.7098 60.5,39C 59.8333,39.3333 59.1667,39.6667 58.5,40C 60.6785,40.4419 61.3452,41.4419 60.5,43C 62.3766,45.126 63.3766,47.626 63.5,50.5C 62.0695,50.4208 60.7362,50.7542 59.5,51.5C 57.1071,49.6369 54.4404,48.3035 51.5,47.5C 50.8175,44.5336 49.8175,41.367 48.5,38C 49.3081,37.6924 49.9747,37.1924 50.5,36.5C 49.6872,35.1861 48.6872,34.0195 47.5,33C 49.8208,29.8772 49.4875,26.8772 46.5,24C 47.8627,21.8707 47.5294,21.3707 45.5,22.5C 44.8307,24.3692 44.4974,26.0359 44.5,27.5C 42.5197,26.1525 41.353,24.1525 41,21.5C 40.6667,21.8333 40.3333,22.1667 40,22.5C 38.661,27.7364 38.161,33.0698 38.5,38.5C 38.1667,38.5 37.8333,38.5 37.5,38.5C 37.3841,35.1401 37.0508,31.8067 36.5,28.5C 34.8876,23.1653 36.0542,18.4986 40,14.5C 43.9179,15.7474 48.0845,17.0808 52.5,18.5 Z"/></g>
<g><path style="opacity:1" fill="#cd0211" d="M 107.5,12.5 C 108.389,16.2464 108.889,20.2464 109,24.5C 109.414,24.9574 109.914,25.2907 110.5,25.5C 111.528,23.6385 113.028,22.3052 115,21.5C 117.584,24.3356 118.751,27.6689 118.5,31.5C 119.791,31.2627 120.791,31.596 121.5,32.5C 120.738,34.2624 119.404,35.2624 117.5,35.5C 117.5,33.5 117.5,31.5 117.5,29.5C 111.282,27.2754 107.282,29.2754 105.5,35.5C 104.325,35.281 103.325,35.6143 102.5,36.5C 94.8583,43.1478 90.1916,51.4812 88.5,61.5C 82.7572,53.0279 76.7572,44.6946 70.5,36.5C 71.609,36.4431 72.609,36.1098 73.5,35.5C 74.7206,36.0283 75.8873,36.695 77,37.5C 79.305,37.421 81.805,37.2543 84.5,37C 89.3219,34.3283 93.9886,31.495 98.5,28.5C 99.373,26.5866 100.373,24.7533 101.5,23C 98.4037,16.8807 100.404,13.3807 107.5,12.5 Z"/></g>
<g><path style="opacity:1" fill="#9a000b" d="M 114.5,38.5 C 112.527,39.806 110.861,41.4727 109.5,43.5C 103.696,49.3242 100.029,56.3242 98.5,64.5C 97.718,67.7144 96.8847,71.0477 96,74.5C 95.059,72.2726 93.8923,70.2726 92.5,68.5C 92.5,68.1667 92.5,67.8333 92.5,67.5C 91.9686,57.0439 95.302,48.0439 102.5,40.5C 103.325,39.6143 104.325,39.281 105.5,39.5C 105.281,38.325 105.614,37.325 106.5,36.5C 108.498,34.6663 110.832,33.6663 113.5,33.5C 113.366,35.2915 113.699,36.9582 114.5,38.5 Z"/></g>
<g><path style="opacity:1" fill="#b30312" d="M 117.5,35.5 C 116.833,36.8333 115.833,37.8333 114.5,38.5C 113.699,36.9582 113.366,35.2915 113.5,33.5C 110.832,33.6663 108.498,34.6663 106.5,36.5C 105.614,37.325 105.281,38.325 105.5,39.5C 104.325,39.281 103.325,39.6143 102.5,40.5C 95.302,48.0439 91.9686,57.0439 92.5,67.5C 90.8079,65.7952 89.4746,63.7952 88.5,61.5C 90.1916,51.4812 94.8583,43.1478 102.5,36.5C 103.325,35.6143 104.325,35.281 105.5,35.5C 107.282,29.2754 111.282,27.2754 117.5,29.5C 117.5,31.5 117.5,33.5 117.5,35.5 Z"/></g>
<g><path style="opacity:1" fill="#b71019" d="M 36.5,38.5 C 36.8333,38.5 37.1667,38.5 37.5,38.5C 37.8333,38.5 38.1667,38.5 38.5,38.5C 41.2534,47.7876 40.9201,57.121 37.5,66.5C 37.7517,68.0729 38.4183,69.4062 39.5,70.5C 39.573,72.0269 38.9063,73.0269 37.5,73.5C 36.6799,71.8599 35.8466,70.1932 35,68.5C 34.5014,72.1516 34.3347,75.8183 34.5,79.5C 34.5,80.8333 34.5,82.1667 34.5,83.5C 33.5233,86.2869 33.19,89.2869 33.5,92.5C 32.8333,95.1667 32.1667,97.8333 31.5,100.5C 29.6923,96.652 28.6923,92.4853 28.5,88C 30.2841,75.0297 32.7841,62.1963 36,49.5C 36.4986,45.8484 36.6653,42.1817 36.5,38.5 Z"/></g>
<g><path style="opacity:1" fill="#a7000c" d="M 44.5,27.5 C 44.8242,32.1736 44.4908,36.6736 43.5,41C 44.0678,42.6517 45.4011,44.3184 47.5,46C 45.8413,48.226 46.508,49.8927 49.5,51C 49.1667,51.3333 48.8333,51.6667 48.5,52C 53.0087,52.5918 57.6753,53.0918 62.5,53.5C 64.0255,53.0057 65.3588,52.339 66.5,51.5C 67.7281,52.3065 68.7281,53.3065 69.5,54.5C 65.9306,55.5443 61.9306,56.3776 57.5,57C 55.9825,58.6851 54.3159,60.1851 52.5,61.5C 53.1901,65.5245 53.1901,69.3578 52.5,73C 54.4191,74.8039 54.7524,76.8039 53.5,79C 53.9884,80.584 54.9884,81.7506 56.5,82.5C 55.0977,83.8425 55.4311,84.6758 57.5,85C 56.1398,86.9376 56.4732,88.6043 58.5,90C 57.8333,90.3333 57.1667,90.6667 56.5,91C 58.6785,91.4419 59.3452,92.4419 58.5,94C 61.074,98.044 63.7406,101.877 66.5,105.5C 63.2771,103.964 60.2771,101.964 57.5,99.5C 56.914,99.7093 56.414,100.043 56,100.5C 53.4835,95.5725 50.9835,90.7391 48.5,86C 48.8333,85.6667 49.1667,85.3333 49.5,85C 48.271,82.2621 46.9377,79.5955 45.5,77C 47.689,76.323 48.0224,75.1563 46.5,73.5C 44.7539,71.1459 42.4206,70.1459 39.5,70.5C 38.4183,69.4062 37.7517,68.0729 37.5,66.5C 40.9201,57.121 41.2534,47.7876 38.5,38.5C 38.161,33.0698 38.661,27.7364 40,22.5C 40.3333,22.1667 40.6667,21.8333 41,21.5C 41.353,24.1525 42.5197,26.1525 44.5,27.5 Z"/></g>
<g><path style="opacity:1" fill="#f77d82" d="M 123.5,34.5 C 120.291,41.8752 119.624,49.5419 121.5,57.5C 120.25,57.4226 119.417,56.756 119,55.5C 117.701,49.8809 117.368,44.2142 118,38.5C 119.451,36.5359 121.284,35.2026 123.5,34.5 Z"/></g>
<g><path style="opacity:1" fill="#cc0112" d="M 58.5,27.5 C 61.4518,31.1185 64.7852,34.4519 68.5,37.5C 70.0073,45.5096 73.3406,52.5096 78.5,58.5C 75.3777,57.4388 72.3777,56.1054 69.5,54.5C 68.7281,53.3065 67.7281,52.3065 66.5,51.5C 63.6158,43.5141 60.9491,35.5141 58.5,27.5 Z"/></g>
<g><path style="opacity:1" fill="#b00512" d="M 69.5,54.5 C 72.3777,56.1054 75.3777,57.4388 78.5,58.5C 83.7834,61.9908 87.9501,66.6574 91,72.5C 93,77.1667 95,81.8333 97,86.5C 98.1224,91.1016 98.6224,95.7682 98.5,100.5C 98.815,104.371 98.4816,108.038 97.5,111.5C 96.8333,107.5 96.1667,107.5 95.5,111.5C 92.0608,112.452 88.5608,113.452 85,114.5C 78.9328,111.995 73.0994,109.662 67.5,107.5C 67.1667,106.833 66.8333,106.167 66.5,105.5C 63.7406,101.877 61.074,98.044 58.5,94C 59.3452,92.4419 58.6785,91.4419 56.5,91C 57.1667,90.6667 57.8333,90.3333 58.5,90C 56.4732,88.6043 56.1398,86.9376 57.5,85C 55.4311,84.6758 55.0977,83.8425 56.5,82.5C 54.9884,81.7506 53.9884,80.584 53.5,79C 54.7524,76.8039 54.4191,74.8039 52.5,73C 53.1901,69.3578 53.1901,65.5245 52.5,61.5C 54.3159,60.1851 55.9825,58.6851 57.5,57C 61.9306,56.3776 65.9306,55.5443 69.5,54.5 Z"/></g>
<g><path style="opacity:1" fill="#bc000e" d="M 75.5,63.5 C 71.7695,61.5732 67.9361,60.9066 64,61.5C 63.7265,63.3289 62.8932,64.8289 61.5,66C 63.0995,67.0658 64.0995,68.5658 64.5,70.5C 64.8879,72.3591 64.8879,74.3591 64.5,76.5C 65.6477,78.1487 66.981,79.6487 68.5,81C 66.7503,83.5132 66.5836,86.3465 68,89.5C 68.805,87.0989 69.6383,87.2656 70.5,90C 69.6919,90.3076 69.0253,90.8076 68.5,91.5C 70.7122,96.3113 74.0455,99.978 78.5,102.5C 77.5416,102.953 76.7083,103.619 76,104.5C 68.8697,102.877 64.0364,98.5432 61.5,91.5C 61.7093,90.914 62.0426,90.414 62.5,90C 60.0228,88.295 58.6894,86.295 58.5,84C 60.9913,83.3741 60.9913,82.5407 58.5,81.5C 59.3473,79.939 59.0139,78.439 57.5,77C 58.1667,76.6667 58.8333,76.3333 59.5,76C 58.877,74.0302 57.877,72.0302 56.5,70C 57.5317,67.7835 57.5317,65.6168 56.5,63.5C 58.1491,61.3501 59.9824,59.3501 62,57.5C 65.3827,57.4807 68.8827,57.9807 72.5,59C 74.1412,60.129 75.1412,61.629 75.5,63.5 Z"/></g>
<g><path style="opacity:1" fill="#c90111" d="M 75.5,63.5 C 77.1003,64.252 78.6003,65.252 80,66.5C 82.0795,69.0652 83.9128,71.7318 85.5,74.5C 81.7908,70.9715 77.6242,67.9715 73,65.5C 69.8333,66.6667 69.6667,68.1667 72.5,70C 71.1854,71.3946 71.5188,72.3946 73.5,73C 73.9369,75.2173 73.9369,77.5506 73.5,80C 74.4919,83.8174 76.1586,87.3174 78.5,90.5C 78.2907,91.086 77.9574,91.586 77.5,92C 80.2676,92.7076 81.1009,94.2076 80,96.5C 81.9751,97.478 83.6418,98.8113 85,100.5C 85.9454,100.095 86.6121,99.428 87,98.5C 87.5764,101.124 88.9098,101.791 91,100.5C 91.6891,101.357 92.5224,102.023 93.5,102.5C 94.4909,98.5546 94.8242,94.5546 94.5,90.5C 94.5,90.1667 94.5,89.8333 94.5,89.5C 95.8248,94.9008 95.8248,100.401 94.5,106C 92.6621,105.367 90.8288,105.534 89,106.5C 85.6868,104.619 82.1868,103.286 78.5,102.5C 74.0455,99.978 70.7122,96.3113 68.5,91.5C 69.0253,90.8076 69.6919,90.3076 70.5,90C 69.6383,87.2656 68.805,87.0989 68,89.5C 66.5836,86.3465 66.7503,83.5132 68.5,81C 66.981,79.6487 65.6477,78.1487 64.5,76.5C 64.8879,74.3591 64.8879,72.3591 64.5,70.5C 64.0995,68.5658 63.0995,67.0658 61.5,66C 62.8932,64.8289 63.7265,63.3289 64,61.5C 67.9361,60.9066 71.7695,61.5732 75.5,63.5 Z"/></g>
<g><path style="opacity:0.996" fill="#f96569" d="M 140.5,20.5 C 141.995,20.4148 142.995,21.0815 143.5,22.5C 135.48,24.4991 128.813,28.4991 123.5,34.5C 121.284,35.2026 119.451,36.5359 118,38.5C 117.368,44.2142 117.701,49.8809 119,55.5C 119.417,56.756 120.25,57.4226 121.5,57.5C 126.349,69.2729 128.183,81.6062 127,94.5C 126.295,97.4757 125.129,100.142 123.5,102.5C 123.845,90.4273 122.678,78.4273 120,66.5C 119.085,65.6721 118.419,64.6721 118,63.5C 117,58.8333 116,54.1667 115,49.5C 110.891,49.5291 109.057,47.5291 109.5,43.5C 110.861,41.4727 112.527,39.806 114.5,38.5C 115.833,37.8333 116.833,36.8333 117.5,35.5C 119.404,35.2624 120.738,34.2624 121.5,32.5C 122.872,31.4884 124.205,30.4884 125.5,29.5C 128.5,27.5 131.5,25.5 134.5,23.5C 136.574,22.4861 138.574,21.4861 140.5,20.5 Z"/></g>
<g><path style="opacity:1" fill="#fc4750" d="M 109.5,43.5 C 109.057,47.5291 110.891,49.5291 115,49.5C 116,54.1667 117,58.8333 118,63.5C 118.419,64.6721 119.085,65.6721 120,66.5C 122.678,78.4273 123.845,90.4273 123.5,102.5C 122.529,104.483 121.529,106.483 120.5,108.5C 119.609,109.11 118.609,109.443 117.5,109.5C 117.5,108.5 117.5,107.5 117.5,106.5C 120.467,104.12 121.8,100.954 121.5,97C 119.338,85.8784 117.004,74.7118 114.5,63.5C 113.69,60.1676 111.69,58.6676 108.5,59C 106.302,61.5829 104.469,64.4162 103,67.5C 102.439,71.0946 101.272,74.4279 99.5,77.5C 98.5078,73.2172 98.1744,68.8839 98.5,64.5C 100.029,56.3242 103.696,49.3242 109.5,43.5 Z"/></g>
<g><path style="opacity:1" fill="#9d020b" d="M 39.5,70.5 C 42.4206,70.1459 44.7539,71.1459 46.5,73.5C 48.0224,75.1563 47.689,76.323 45.5,77C 46.9377,79.5955 48.271,82.2621 49.5,85C 49.1667,85.3333 48.8333,85.6667 48.5,86C 50.9835,90.7391 53.4835,95.5725 56,100.5C 56.414,100.043 56.914,99.7093 57.5,99.5C 60.2771,101.964 63.2771,103.964 66.5,105.5C 66.8333,106.167 67.1667,106.833 67.5,107.5C 64.5448,106.841 61.5448,106.508 58.5,106.5C 57.8333,106.5 57.1667,106.5 56.5,106.5C 52.7657,103.769 49.7657,100.436 47.5,96.5C 44.7957,90.4084 42.629,84.0751 41,77.5C 40.6174,76.944 40.1174,76.6107 39.5,76.5C 38.5987,75.7095 37.9321,74.7095 37.5,73.5C 38.9063,73.0269 39.573,72.0269 39.5,70.5 Z"/></g>
<g><path style="opacity:1" fill="#989332" d="M 37.5,73.5 C 37.9321,74.7095 38.5987,75.7095 39.5,76.5C 39.9926,78.8056 40.3259,81.139 40.5,83.5C 39.295,80.7659 37.795,78.0993 36,75.5C 35.79,77.0581 35.29,78.3915 34.5,79.5C 34.3347,75.8183 34.5014,72.1516 35,68.5C 35.8466,70.1932 36.6799,71.8599 37.5,73.5 Z"/></g>
<g><path style="opacity:1" fill="#fd2c3a" d="M 117.5,106.5 C 117.5,105.833 117.5,105.167 117.5,104.5C 117.804,100.785 117.137,97.2846 115.5,94C 115.957,93.586 116.291,93.086 116.5,92.5C 113.724,86.6147 111.224,80.6147 109,74.5C 108.333,73.1667 107.667,73.1667 107,74.5C 106.289,77.734 105.455,80.9006 104.5,84C 104.833,84.3333 105.167,84.6667 105.5,85C 102.859,87.6813 101.025,90.848 100,94.5C 99.868,85.9127 97.2013,78.246 92,71.5C 91.2599,70.2506 91.4265,69.2506 92.5,68.5C 93.8923,70.2726 95.059,72.2726 96,74.5C 96.8847,71.0477 97.718,67.7144 98.5,64.5C 98.1744,68.8839 98.5078,73.2172 99.5,77.5C 101.272,74.4279 102.439,71.0946 103,67.5C 104.469,64.4162 106.302,61.5829 108.5,59C 111.69,58.6676 113.69,60.1676 114.5,63.5C 117.004,74.7118 119.338,85.8784 121.5,97C 121.8,100.954 120.467,104.12 117.5,106.5 Z"/></g>
<g><path style="opacity:1" fill="#f7101e" d="M 60.5,23.5 C 62.4821,26.8103 64.8154,29.8103 67.5,32.5C 68.5116,33.8717 69.5116,35.205 70.5,36.5C 76.7572,44.6946 82.7572,53.0279 88.5,61.5C 89.4746,63.7952 90.8079,65.7952 92.5,67.5C 92.5,67.8333 92.5,68.1667 92.5,68.5C 91.4265,69.2506 91.2599,70.2506 92,71.5C 97.2013,78.246 99.868,85.9127 100,94.5C 101.025,90.848 102.859,87.6813 105.5,85C 105.167,84.6667 104.833,84.3333 104.5,84C 105.455,80.9006 106.289,77.734 107,74.5C 107.667,73.1667 108.333,73.1667 109,74.5C 111.224,80.6147 113.724,86.6147 116.5,92.5C 116.291,93.086 115.957,93.586 115.5,94C 117.137,97.2846 117.804,100.785 117.5,104.5C 111.099,103.714 105.265,105.047 100,108.5C 99.8171,105.635 99.3171,102.969 98.5,100.5C 98.6224,95.7682 98.1224,91.1016 97,86.5C 95,81.8333 93,77.1667 91,72.5C 87.9501,66.6574 83.7834,61.9908 78.5,58.5C 73.3406,52.5096 70.0073,45.5096 68.5,37.5C 64.7852,34.4519 61.4518,31.1185 58.5,27.5C 57.4161,24.9959 56.0828,22.6626 54.5,20.5C 54.5,20.1667 54.5,19.8333 54.5,19.5C 54.4346,19.0618 54.6012,18.7284 55,18.5C 56.7038,20.3734 58.5372,22.0401 60.5,23.5 Z"/></g>
<g><path style="opacity:1" fill="#740e07" d="M 39.5,76.5 C 40.1174,76.6107 40.6174,76.944 41,77.5C 42.629,84.0751 44.7957,90.4084 47.5,96.5C 46.8333,96.1667 46.1667,95.8333 45.5,95.5C 43.7875,91.4222 42.1209,87.4222 40.5,83.5C 40.3259,81.139 39.9926,78.8056 39.5,76.5 Z"/></g>
<g><path style="opacity:1" fill="#e2172d" d="M 85.5,76.5 C 91.6198,78.6273 94.6198,82.9607 94.5,89.5C 94.5,89.8333 94.5,90.1667 94.5,90.5C 92.2133,90.7239 90.0466,91.3906 88,92.5C 84.4624,91.6292 82.2957,89.4625 81.5,86C 83.5251,83.1175 84.8584,79.9508 85.5,76.5 Z"/></g>
<g><path style="opacity:1" fill="#d60215" d="M 85.5,74.5 C 85.5,75.1667 85.5,75.8333 85.5,76.5C 84.8584,79.9508 83.5251,83.1175 81.5,86C 82.2957,89.4625 84.4624,91.6292 88,92.5C 90.0466,91.3906 92.2133,90.7239 94.5,90.5C 94.8242,94.5546 94.4909,98.5546 93.5,102.5C 92.5224,102.023 91.6891,101.357 91,100.5C 88.9098,101.791 87.5764,101.124 87,98.5C 86.6121,99.428 85.9454,100.095 85,100.5C 83.6418,98.8113 81.9751,97.478 80,96.5C 81.1009,94.2076 80.2676,92.7076 77.5,92C 77.9574,91.586 78.2907,91.086 78.5,90.5C 76.1586,87.3174 74.4919,83.8174 73.5,80C 73.9369,77.5506 73.9369,75.2173 73.5,73C 71.5188,72.3946 71.1854,71.3946 72.5,70C 69.6667,68.1667 69.8333,66.6667 73,65.5C 77.6242,67.9715 81.7908,70.9715 85.5,74.5 Z"/></g>
<g><path style="opacity:1" fill="#759e2e" d="M 40.5,83.5 C 42.1209,87.4222 43.7875,91.4222 45.5,95.5C 46.1667,97.5 46.8333,99.5 47.5,101.5C 45.816,100.473 44.1494,99.4728 42.5,98.5C 41.1851,94.9156 40.0184,91.2489 39,87.5C 38.9016,91.6148 38.7349,94.9481 38.5,97.5C 38.44,96.9569 38.1067,96.6236 37.5,96.5C 36.6922,98.4233 36.1922,100.423 36,102.5C 34.5845,96.2855 34.0845,89.9522 34.5,83.5C 34.5,82.1667 34.5,80.8333 34.5,79.5C 35.29,78.3915 35.79,77.0581 36,75.5C 37.795,78.0993 39.295,80.7659 40.5,83.5 Z"/></g>
<g><path style="opacity:1" fill="#9b3f32" d="M 33.5,92.5 C 33.3718,96.8814 33.7051,101.215 34.5,105.5C 33.8333,105.167 33.1667,104.833 32.5,104.5C 32.5,103.833 32.1667,103.5 31.5,103.5C 31.5,102.5 31.5,101.5 31.5,100.5C 32.1667,97.8333 32.8333,95.1667 33.5,92.5 Z"/></g>
<g><path style="opacity:1" fill="#578e36" d="M 31.5,103.5 C 32.1667,103.5 32.5,103.833 32.5,104.5C 33.1667,104.833 33.8333,105.167 34.5,105.5C 35.0084,108.852 36.3418,111.852 38.5,114.5C 37.7666,115.087 36.7666,115.087 35.5,114.5C 31.2256,111.352 26.8923,108.185 22.5,105C 17.5984,103.186 12.5984,101.686 7.5,100.5C 11.7953,99.3391 16.1287,99.1725 20.5,100C 24.1653,101.278 27.832,102.444 31.5,103.5 Z"/></g>
<g><path style="opacity:1" fill="#cc1712" d="M 98.5,100.5 C 99.3171,102.969 99.8171,105.635 100,108.5C 105.265,105.047 111.099,103.714 117.5,104.5C 117.5,105.167 117.5,105.833 117.5,106.5C 117.5,107.5 117.5,108.5 117.5,109.5C 114.167,110.5 110.833,111.5 107.5,112.5C 103.068,113.642 99.2349,115.975 96,119.5C 96.3594,116.888 96.8594,114.221 97.5,111.5C 98.4816,108.038 98.815,104.371 98.5,100.5 Z"/></g>
<g><path style="opacity:1" fill="#a61a20" d="M 58.5,106.5 C 61.5448,106.508 64.5448,106.841 67.5,107.5C 73.0994,109.662 78.9328,111.995 85,114.5C 88.5608,113.452 92.0608,112.452 95.5,111.5C 94.5383,114.757 93.0383,117.757 91,120.5C 88.7409,119.464 86.4075,119.464 84,120.5C 73.6566,119.275 65.1566,114.608 58.5,106.5 Z"/></g>
<g><path style="opacity:0.996" fill="#6b9d3c" d="M 120.5,108.5 C 130.749,107.731 140.749,108.898 150.5,112C 152.904,112.508 153.571,113.675 152.5,115.5C 142.072,111.666 131.739,111.666 121.5,115.5C 109.792,116.485 100.792,122.151 94.5,132.5C 93.5,132.5 92.5,132.5 91.5,132.5C 89.8684,129.573 90.7017,127.573 94,126.5C 93.6446,125.041 93.8112,123.707 94.5,122.5C 98.8333,119.167 103.167,115.833 107.5,112.5C 110.833,111.5 114.167,110.5 117.5,109.5C 118.609,109.443 119.609,109.11 120.5,108.5 Z"/></g>
<g><path style="opacity:1" fill="#377f30" d="M 42.5,98.5 C 44.8751,102.238 46.8751,106.238 48.5,110.5C 49.6507,111.731 50.8173,111.731 52,110.5C 53,111.833 54,113.167 55,114.5C 54.4052,116.35 53.9052,118.35 53.5,120.5C 51.5,120.5 49.5,120.5 47.5,120.5C 47.5674,119.041 47.2341,117.708 46.5,116.5C 46.0046,114.518 45.5046,112.518 45,110.5C 43.8904,108.963 42.3904,108.297 40.5,108.5C 40.7163,106.319 39.883,104.653 38,103.5C 37.2109,101.288 37.3775,99.2884 38.5,97.5C 38.7349,94.9481 38.9016,91.6148 39,87.5C 40.0184,91.2489 41.1851,94.9156 42.5,98.5 Z"/></g>
<g><path style="opacity:1" fill="#6b8326" d="M 45.5,95.5 C 46.1667,95.8333 46.8333,96.1667 47.5,96.5C 49.7657,100.436 52.7657,103.769 56.5,106.5C 60.8333,111.167 65.1667,115.833 69.5,120.5C 70.1667,121.5 70.8333,122.5 71.5,123.5C 63.8719,115.877 55.8719,108.543 47.5,101.5C 46.8333,99.5 46.1667,97.5 45.5,95.5 Z"/></g>
<g><path style="opacity:1" fill="#5e944b" d="M 34.5,83.5 C 34.0845,89.9522 34.5845,96.2855 36,102.5C 36.1922,100.423 36.6922,98.4233 37.5,96.5C 38.1067,96.6236 38.44,96.9569 38.5,97.5C 37.3775,99.2884 37.2109,101.288 38,103.5C 39.883,104.653 40.7163,106.319 40.5,108.5C 42.3904,108.297 43.8904,108.963 45,110.5C 45.5046,112.518 46.0046,114.518 46.5,116.5C 44.744,117.552 44.0773,119.219 44.5,121.5C 40.9485,119.889 37.9485,117.556 35.5,114.5C 36.7666,115.087 37.7666,115.087 38.5,114.5C 36.3418,111.852 35.0084,108.852 34.5,105.5C 33.7051,101.215 33.3718,96.8814 33.5,92.5C 33.19,89.2869 33.5233,86.2869 34.5,83.5 Z"/></g>
<g><path style="opacity:1" fill="#467120" d="M 42.5,98.5 C 44.1494,99.4728 45.816,100.473 47.5,101.5C 55.8719,108.543 63.8719,115.877 71.5,123.5C 72.8333,124.167 73.8333,125.167 74.5,126.5C 69.8215,126.666 65.1548,126.499 60.5,126C 57.98,124.303 55.6467,122.47 53.5,120.5C 53.9052,118.35 54.4052,116.35 55,114.5C 54,113.167 53,111.833 52,110.5C 50.8173,111.731 49.6507,111.731 48.5,110.5C 46.8751,106.238 44.8751,102.238 42.5,98.5 Z"/></g>
<g><path style="opacity:1" fill="#901e19" d="M 56.5,106.5 C 57.1667,106.5 57.8333,106.5 58.5,106.5C 65.1566,114.608 73.6566,119.275 84,120.5C 86.4075,119.464 88.7409,119.464 91,120.5C 93.0383,117.757 94.5383,114.757 95.5,111.5C 96.1667,107.5 96.8333,107.5 97.5,111.5C 96.8594,114.221 96.3594,116.888 96,119.5C 99.2349,115.975 103.068,113.642 107.5,112.5C 103.167,115.833 98.8333,119.167 94.5,122.5C 92.5,123.5 90.5,124.5 88.5,125.5C 88.0618,125.565 87.7284,125.399 87.5,125C 88.3567,124.311 89.0233,123.478 89.5,122.5C 84.5329,121.671 79.5329,121.171 74.5,121C 72.9391,120.682 71.7724,119.849 71,118.5C 70.7216,119.416 70.2216,120.082 69.5,120.5C 65.1667,115.833 60.8333,111.167 56.5,106.5 Z"/></g>
<g><path style="opacity:1" fill="#80be38" d="M 121.5,115.5 C 120.395,116.6 119.062,117.267 117.5,117.5C 115.821,117.892 114.154,118.392 112.5,119C 108.347,122.575 104.014,125.909 99.5,129C 98.7476,129.671 98.4142,130.504 98.5,131.5C 97.2921,132.234 95.9587,132.567 94.5,132.5C 100.792,122.151 109.792,116.485 121.5,115.5 Z"/></g>
<g><path style="opacity:1" fill="#94392b" d="M 88.5,125.5 C 86.9724,126.309 85.3057,126.976 83.5,127.5C 80.3915,127.736 77.3915,127.403 74.5,126.5C 73.8333,125.167 72.8333,124.167 71.5,123.5C 70.8333,122.5 70.1667,121.5 69.5,120.5C 70.2216,120.082 70.7216,119.416 71,118.5C 71.7724,119.849 72.9391,120.682 74.5,121C 79.5329,121.171 84.5329,121.671 89.5,122.5C 89.0233,123.478 88.3567,124.311 87.5,125C 87.7284,125.399 88.0618,125.565 88.5,125.5 Z"/></g>
<g><path style="opacity:0.465" fill="#99e137" d="M 117.5,117.5 C 112.297,123.703 105.964,128.37 98.5,131.5C 98.4142,130.504 98.7476,129.671 99.5,129C 104.014,125.909 108.347,122.575 112.5,119C 114.154,118.392 115.821,117.892 117.5,117.5 Z"/></g>
<g><path style="opacity:1" fill="#3c6c2f" d="M 46.5,116.5 C 47.2341,117.708 47.5674,119.041 47.5,120.5C 49.5,120.5 51.5,120.5 53.5,120.5C 55.6467,122.47 57.98,124.303 60.5,126C 65.1548,126.499 69.8215,126.666 74.5,126.5C 77.3915,127.403 80.3915,127.736 83.5,127.5C 80.3586,128.321 77.0252,128.821 73.5,129C 72.6634,130.011 72.33,131.178 72.5,132.5C 61.6995,132.348 52.3662,128.682 44.5,121.5C 44.0773,119.219 44.744,117.552 46.5,116.5 Z"/></g>
<g><path style="opacity:1" fill="#488026" d="M 94.5,122.5 C 93.8112,123.707 93.6446,125.041 94,126.5C 90.7017,127.573 89.8684,129.573 91.5,132.5C 90.0413,132.567 88.7079,132.234 87.5,131.5C 86.8333,131.5 86.1667,131.5 85.5,131.5C 82.3191,132.334 79.1525,133.334 76,134.5C 74.2739,132.902 73.4406,133.235 73.5,135.5C 72.596,134.791 72.2627,133.791 72.5,132.5C 72.33,131.178 72.6634,130.011 73.5,129C 77.0252,128.821 80.3586,128.321 83.5,127.5C 85.3057,126.976 86.9724,126.309 88.5,125.5C 90.5,124.5 92.5,123.5 94.5,122.5 Z"/></g>
<g><path style="opacity:1" fill="#74c534" d="M 85.5,131.5 C 86.1667,131.5 86.8333,131.5 87.5,131.5C 86.7048,135.476 86.0381,139.476 85.5,143.5C 90.5607,144.483 90.5607,145.816 85.5,147.5C 84.5041,147.414 83.6708,147.748 83,148.5C 82.8171,151.365 82.3171,154.031 81.5,156.5C 80.6302,147.618 81.9635,139.285 85.5,131.5 Z"/></g>
<g><path style="opacity:1" fill="#56a02c" d="M 85.5,131.5 C 81.9635,139.285 80.6302,147.618 81.5,156.5C 81.5569,157.609 81.8902,158.609 82.5,159.5C 79.8333,159.5 77.1667,159.5 74.5,159.5C 73.8262,157.976 72.8262,156.642 71.5,155.5C 72.2739,154.289 73.1072,154.289 74,155.5C 74.4992,150.845 74.6658,146.179 74.5,141.5C 72.3352,141.884 70.6685,141.217 69.5,139.5C 70.6888,138.571 72.0222,138.238 73.5,138.5C 73.5,137.5 73.5,136.5 73.5,135.5C 73.4406,133.235 74.2739,132.902 76,134.5C 79.1525,133.334 82.3191,132.334 85.5,131.5 Z"/></g>
<g><path style="opacity:0.906" fill="#a4ed2a" d="M 85.5,147.5 C 85.5,151.5 85.5,155.5 85.5,159.5C 84.5,159.5 83.5,159.5 82.5,159.5C 81.8902,158.609 81.5569,157.609 81.5,156.5C 82.3171,154.031 82.8171,151.365 83,148.5C 83.6708,147.748 84.5041,147.414 85.5,147.5 Z"/></g>
</svg>
